<svg width="17" height="17" viewBox="0 0 17 17" fill="none" xmlns="http://www.w3.org/2000/svg">
<path d="M14.2584 5.3125H2.74086C2.68706 5.3123 2.63381 5.3224 2.58451 5.34216C2.53522 5.36192 2.49097 5.39089 2.45459 5.42724C2.41822 5.46358 2.39053 5.50648 2.3733 5.5532C2.35606 5.59992 2.34966 5.64942 2.3545 5.69854L3.349 15.7115C3.38391 16.0636 3.56118 16.3911 3.84599 16.6295C4.13081 16.8679 4.50258 17 4.88827 17H12.111C12.4966 17 12.8684 16.8679 13.1532 16.6295C13.438 16.3911 13.6153 16.0636 13.6502 15.7115L14.6432 5.69854C14.648 5.64957 14.6416 5.60022 14.6244 5.55363C14.6073 5.50705 14.5797 5.46425 14.5435 5.42796C14.5073 5.39161 14.4633 5.36258 14.4142 5.3427C14.3651 5.32282 14.312 5.31254 14.2584 5.3125ZM7.14927 14.5208C7.14927 14.6617 7.08821 14.7969 6.97953 14.8965C6.87084 14.9961 6.72343 15.0521 6.56973 15.0521C6.41602 15.0521 6.26861 14.9961 6.15993 14.8965C6.05124 14.7969 5.99018 14.6617 5.99018 14.5208V8.14583C5.99018 8.00494 6.05124 7.86981 6.15993 7.77018C6.26861 7.67055 6.41602 7.61458 6.56973 7.61458C6.72343 7.61458 6.87084 7.67055 6.97953 7.77018C7.08821 7.86981 7.14927 8.00494 7.14927 8.14583V14.5208ZM11.0129 14.5208C11.0129 14.6617 10.9519 14.7969 10.8432 14.8965C10.7345 14.9961 10.5871 15.0521 10.4334 15.0521C10.2797 15.0521 10.1322 14.9961 10.0236 14.8965C9.91488 14.7969 9.85382 14.6617 9.85382 14.5208V8.14583C9.85382 8.00494 9.91488 7.86981 10.0236 7.77018C10.1322 7.67055 10.2797 7.61458 10.4334 7.61458C10.5871 7.61458 10.7345 7.67055 10.8432 7.77018C10.9519 7.86981 11.0129 8.00494 11.0129 8.14583V14.5208ZM16.2273 2.83333H12.5568C12.5056 2.83333 12.4564 2.81468 12.4202 2.78147C12.384 2.74826 12.3636 2.70322 12.3636 2.65625V1.77083C12.3636 1.30118 12.1601 0.850761 11.7978 0.518665C11.4355 0.186569 10.9442 0 10.4318 0H6.56818C6.05583 0 5.56447 0.186569 5.20218 0.518665C4.83989 0.850761 4.63636 1.30118 4.63636 1.77083V2.65625C4.63636 2.70322 4.61601 2.74826 4.57978 2.78147C4.54355 2.81468 4.49442 2.83333 4.44318 2.83333H0.772727C0.567787 2.83333 0.371241 2.90796 0.226327 3.0408C0.0814121 3.17364 0 3.3538 0 3.54167C0 3.72953 0.0814121 3.9097 0.226327 4.04253C0.371241 4.17537 0.567787 4.25 0.772727 4.25H16.2273C16.4322 4.25 16.6288 4.17537 16.7737 4.04253C16.9186 3.9097 17 3.72953 17 3.54167C17 3.3538 16.9186 3.17364 16.7737 3.0408C16.6288 2.90796 16.4322 2.83333 16.2273 2.83333ZM6.18182 2.65625V1.77083C6.18182 1.6769 6.22252 1.58682 6.29498 1.5204C6.36744 1.45398 6.46571 1.41667 6.56818 1.41667H10.4318C10.5343 1.41667 10.6326 1.45398 10.705 1.5204C10.7775 1.58682 10.8182 1.6769 10.8182 1.77083V2.65625C10.8182 2.70322 10.7978 2.74826 10.7616 2.78147C10.7254 2.81468 10.6762 2.83333 10.625 2.83333H6.375C6.32376 2.83333 6.27463 2.81468 6.2384 2.78147C6.20217 2.74826 6.18182 2.70322 6.18182 2.65625Z" fill="#693894"/>
</svg>
