<svg width="36" height="34" viewBox="0 0 36 34" fill="none" xmlns="http://www.w3.org/2000/svg">
<path d="M6.24338 0.165978C6.88083 -0.176519 7.69512 0.0280714 8.06215 0.622916L16.8798 14.9144H20.9094L12.8569 1.8632C12.4899 1.26834 12.7091 0.508475 13.3466 0.165978C13.984 -0.176519 14.7984 0.0280714 15.1654 0.622916L23.983 14.9144H34.518C35.2064 14.9144 35.7648 15.4354 35.7648 16.078V16.5715C35.7648 18.3036 35.4799 19.9736 34.9518 21.5429H1.06162C0.533407 19.9736 0.248657 18.3036 0.248657 16.5715V16.078C0.248657 15.4354 0.806882 14.9144 1.4955 14.9144H13.8062L5.75371 1.8632C5.3867 1.26834 5.60592 0.508475 6.24338 0.165978ZM2.14396 24.0286C5.06839 29.4352 11.0735 33.1429 18.0067 33.1429C24.9398 33.1429 30.945 29.4352 33.8694 24.0286H2.14396Z" fill="#BEBDBD"/>
</svg>
