<svg width="36" height="34" viewBox="0 0 36 34" fill="none" xmlns="http://www.w3.org/2000/svg">
<path d="M18.0266 9.85328C21.0709 9.85328 21.5782 7.4529 21.5782 5.47405C21.5782 3.49521 20.2684 0 18.0266 0C15.7849 0 14.475 3.49521 14.475 5.47405C14.475 7.4529 14.9824 9.85328 18.0266 9.85328ZM2.93229 15.6757C2.93229 13.4495 4.72117 11.6448 6.92785 11.6448H29.1254C31.332 11.6448 33.121 13.4495 33.121 15.6757V17.2432L26.6675 22.1262C25.951 22.6683 24.9819 22.7229 24.2102 22.265L20.5888 20.1159C18.9982 19.172 17.016 19.2132 15.4654 20.2225L12.3387 22.2577C11.6093 22.7322 10.6726 22.7346 9.94099 22.2634L2.93229 17.7502V15.6757ZM2.93229 20.9382V30.4556H1.60044C0.864883 30.4556 0.268585 31.0572 0.268585 31.7992C0.268585 32.5413 0.864883 33.1429 1.60044 33.1429H34.4528C35.1884 33.1429 35.7847 32.5413 35.7847 31.7992C35.7847 31.0572 35.1884 30.4556 34.4528 30.4556H33.121V20.6023L28.2657 24.276C26.6895 25.4686 24.5577 25.589 22.8597 24.5813L19.2383 22.4322C18.5153 22.0031 17.6143 22.0219 16.9095 22.4807L13.7828 24.5157C12.1782 25.5601 10.1174 25.5651 8.50782 24.5286L2.93229 20.9382Z" fill="#BEBDBD"/>
</svg>
