<svg width="38" height="26" viewBox="0 0 38 26" fill="none" xmlns="http://www.w3.org/2000/svg">
<path d="M14.5794 0.15625C14.2444 0.15625 13.923 0.301743 13.6861 0.560722C13.4492 0.819701 13.3161 1.17095 13.3161 1.5372H7.6309C6.21801 1.53463 4.83812 2.00396 3.676 2.88233C2.51388 3.76071 1.625 5.00621 1.12839 6.45206C0.631773 7.89792 0.55113 9.47511 0.897254 10.9724C1.24338 12.4698 1.99975 13.8158 3.06509 14.8302C2.33979 15.3232 1.74076 16.0092 1.32404 16.8241C0.907326 17.6389 0.686549 18.556 0.682373 19.4896C0.682373 22.5277 2.95644 25.0134 5.73585 25.0134H25.9497C28.7292 25.0134 31.0032 22.5277 31.0032 19.4896C31.0032 18.1418 30.5332 16.921 29.7904 15.9626L35.2911 18.6223C35.5193 18.7364 35.766 18.7998 36.0168 18.8089C36.2675 18.8179 36.5175 18.7724 36.7521 18.675C36.9867 18.5776 37.2012 18.4303 37.3833 18.2415C37.5654 18.0528 37.7113 17.8264 37.8127 17.5755C37.9141 17.3246 37.9689 17.0542 37.9739 16.7799C37.9789 16.5057 37.934 16.2331 37.8419 15.978C37.7498 15.7228 37.6122 15.4903 37.4372 15.2937C37.2621 15.0972 37.0531 14.9406 36.8223 14.833L32.2489 12.618L36.3675 11.8667C36.613 11.8221 36.8481 11.7251 37.0594 11.5811C37.2706 11.4372 37.4538 11.2492 37.5986 11.0279C37.7434 10.8066 37.8468 10.5562 37.9031 10.2912C37.9593 10.0262 37.9673 9.7516 37.9265 9.4832C37.8857 9.2148 37.7969 8.95782 37.6652 8.72693C37.5335 8.49604 37.3616 8.29575 37.1591 8.13751C36.9566 7.97927 36.7276 7.86617 36.4851 7.80468C36.2426 7.74318 35.9914 7.7345 35.7459 7.77911L30.364 8.75958C29.1284 5.54749 26.0458 2.32158 20.8963 1.6753V1.5372C20.8963 1.17095 20.7632 0.819701 20.5262 0.560722C20.2893 0.301743 19.968 0.15625 19.6329 0.15625H14.5794ZM15.8428 2.91815H18.3695V22.2515H15.8428V2.91815ZM24.6864 13.9658C25.3408 13.9658 25.8588 14.5099 25.9245 15.2086L26.1165 14.8385C26.1989 14.6802 26.309 14.5413 26.4407 14.4297C26.5724 14.3181 26.723 14.2361 26.8838 14.1884C27.0446 14.1407 27.2124 14.1282 27.3776 14.1516C27.5428 14.1751 27.7022 14.2341 27.8465 14.3251C27.9908 14.4162 28.1172 14.5376 28.2184 14.6822C28.3196 14.8269 28.3936 14.992 28.4362 15.1681C28.4788 15.3442 28.4891 15.5277 28.4665 15.7082C28.4439 15.8886 28.3889 16.0624 28.3047 16.2195L27.6528 17.4568C27.9131 17.7133 28.1211 18.0269 28.263 18.3771C28.405 18.7274 28.4777 19.1065 28.4765 19.4896C28.4765 21.0445 27.3723 22.2515 25.9497 22.2515H20.8963V16.7277H23.423V15.3467C23.423 14.5817 23.9865 13.9658 24.6864 13.9658ZM6.84761 14.1591C7.09377 14.1252 7.3436 14.1717 7.56569 14.2925C7.78778 14.4134 7.97222 14.6034 8.09582 14.8385L8.60117 15.7997C8.71767 15.6576 8.8602 15.5438 9.01952 15.4658C9.17883 15.3877 9.35138 15.3472 9.52595 15.3467C10.2259 15.3467 10.7893 15.9626 10.7893 16.7277H13.3161V22.2515H5.73585C4.31329 22.2515 3.20911 21.0445 3.20911 19.4896C3.20911 17.9346 4.31329 16.7277 5.73585 16.7277H6.1755L5.90767 16.2195C5.80151 16.0226 5.74203 15.7998 5.73461 15.5713C5.72719 15.3429 5.77208 15.1161 5.86519 14.9114C5.95831 14.7068 6.0967 14.5308 6.26782 14.3994C6.43894 14.268 6.63736 14.1854 6.84508 14.1591H6.84761Z" fill="#BEBDBD"/>
</svg>
