<svg width="46" height="29" viewBox="0 0 46 29" fill="none" xmlns="http://www.w3.org/2000/svg">
<path d="M17.1422 0C16.7289 0 16.3325 0.169742 16.0402 0.471884C15.748 0.774026 15.5838 1.18382 15.5838 1.61111H8.57109C6.82827 1.60811 5.12616 2.15566 3.69267 3.18043C2.25918 4.2052 1.16274 5.65829 0.550162 7.34512C-0.0624158 9.03195 -0.16189 10.872 0.265058 12.6189C0.692007 14.3658 1.625 15.9361 2.9391 17.1197C2.04445 17.6947 1.30553 18.4951 0.791506 19.4458C0.277482 20.3965 0.0051516 21.4664 0 22.5556C0 26.1 2.80508 29 6.23352 29H31.1676C34.596 29 37.4011 26.1 37.4011 22.5556C37.4011 20.9831 36.8214 19.5589 35.9051 18.4408L42.6903 21.5438C42.9718 21.6769 43.276 21.7508 43.5854 21.7614C43.8947 21.7719 44.203 21.7188 44.4924 21.6052C44.7818 21.4916 45.0464 21.3197 45.271 21.0995C45.4956 20.8793 45.6756 20.6152 45.8007 20.3224C45.9258 20.0297 45.9933 19.7142 45.9995 19.3943C46.0057 19.0744 45.9504 18.7563 45.8367 18.4587C45.7231 18.161 45.5534 17.8897 45.3375 17.6604C45.1216 17.4311 44.8638 17.2484 44.579 17.1229L38.9377 14.5387L44.018 13.6622C44.3209 13.6102 44.6109 13.497 44.8714 13.329C45.132 13.1611 45.358 12.9418 45.5366 12.6836C45.7152 12.4254 45.8428 12.1333 45.9122 11.8241C45.9816 11.5149 45.9914 11.1946 45.941 10.8814C45.8907 10.5683 45.7812 10.2685 45.6188 9.99913C45.4564 9.72975 45.2442 9.49608 44.9944 9.31147C44.7447 9.12686 44.4622 8.99491 44.1631 8.92317C43.864 8.85142 43.5542 8.84129 43.2513 8.89333L36.6126 10.0372C35.0885 6.28978 31.286 2.52622 24.9341 1.77222V1.61111C24.9341 1.18382 24.7699 0.774026 24.4776 0.471884C24.1854 0.169742 23.789 0 23.3757 0H17.1422ZM18.7006 3.22222H21.8173V25.7778H18.7006V3.22222ZM29.6092 16.1111C30.4165 16.1111 31.0554 16.7459 31.1364 17.5611L31.3733 17.1293C31.4749 16.9446 31.6108 16.7825 31.7732 16.6523C31.9357 16.5222 32.1214 16.4265 32.3197 16.3708C32.5181 16.3151 32.7251 16.3006 32.9289 16.328C33.1327 16.3553 33.3293 16.4241 33.5072 16.5304C33.6852 16.6366 33.8411 16.7782 33.966 16.947C34.0908 17.1158 34.1821 17.3084 34.2346 17.5138C34.2872 17.7192 34.2999 17.9334 34.272 18.1439C34.2442 18.3544 34.1764 18.5571 34.0724 18.7404L33.2683 20.184C33.5895 20.4832 33.846 20.849 34.0211 21.2577C34.1962 21.6664 34.2859 22.1086 34.2844 22.5556C34.2844 24.3697 32.9223 25.7778 31.1676 25.7778H24.9341V19.3333H28.0508V17.7222C28.0508 16.8297 28.7459 16.1111 29.6092 16.1111ZM7.60489 16.3367C7.90854 16.2971 8.2167 16.3513 8.49065 16.4923C8.7646 16.6334 8.99211 16.855 9.14457 17.1293L9.76793 18.2507C9.91163 18.0849 10.0874 17.9521 10.284 17.8611C10.4805 17.7701 10.6933 17.7227 10.9087 17.7222C11.772 17.7222 12.467 18.4408 12.467 19.3333H15.5838V25.7778H6.23352C4.47878 25.7778 3.11676 24.3697 3.11676 22.5556C3.11676 20.7414 4.47878 19.3333 6.23352 19.3333H6.77584L6.44546 18.7404C6.31452 18.5107 6.24114 18.2508 6.23199 17.9843C6.22284 17.7178 6.27821 17.4531 6.39307 17.2144C6.50793 16.9756 6.67864 16.7703 6.88972 16.617C7.10079 16.4637 7.34555 16.3674 7.60178 16.3367H7.60489Z" fill="#BEBDBD"/>
</svg>
