<svg width="36" height="34" viewBox="0 0 36 34" fill="none" xmlns="http://www.w3.org/2000/svg">
<path d="M33.7403 12.2367C33.7078 11.17 33.3968 10.1294 32.8372 9.21431C32.2775 8.29922 31.4879 7.54032 30.5438 7.0102C30.3175 5.49266 29.5411 4.10601 28.3572 3.10446C27.1732 2.10292 25.661 1.55359 24.0977 1.55718C23.4982 1.55617 22.9012 1.63231 22.3219 1.78366C21.0996 0.638802 19.4746 0 17.7847 0C16.0948 0 14.4698 0.638802 13.2475 1.78366C12.6682 1.63231 12.0712 1.55617 11.4717 1.55718C9.9023 1.54517 8.38147 2.09069 7.19008 3.09299C5.9987 4.0953 5.21723 5.48669 4.99001 7.0102C4.04265 7.53815 3.24949 8.2961 2.68664 9.21134C2.12379 10.1266 1.81015 11.1684 1.7758 12.2367C1.30483 12.2367 0.853149 12.4203 0.520121 12.747C0.187093 13.0737 0 13.5169 0 13.9789C7.9187e-05 17.037 0.82065 20.0412 2.37924 22.6895C3.93783 25.3379 6.17953 27.5371 8.87902 29.0662V31.4007C8.87902 31.8627 9.06612 32.3059 9.39915 32.6326C9.73217 32.9593 10.1839 33.1429 10.6548 33.1429H24.8613C25.3322 33.1429 25.7839 32.9593 26.117 32.6326C26.45 32.3059 26.6371 31.8627 26.6371 31.4007V29.0662C29.3366 27.5371 31.5783 25.3379 33.1369 22.6895C34.6954 20.0412 35.516 17.037 35.5161 13.9789C35.5161 13.5169 35.329 13.0737 34.996 12.747C34.6629 12.4203 34.2113 12.2367 33.7403 12.2367ZM5.32741 12.2367C5.37252 11.6863 5.58428 11.1617 5.93551 10.7302C6.28673 10.2987 6.7614 9.98003 7.29856 9.8151L8.77248 9.36214L8.48835 7.88129C8.49298 7.50607 8.57291 7.13542 8.72357 6.79051C8.87423 6.4456 9.09266 6.13319 9.3664 5.8711C9.64013 5.60902 9.96381 5.4024 10.319 5.26306C10.6741 5.12371 11.0537 5.05435 11.4362 5.05896C11.949 5.05608 12.4549 5.17566 12.9101 5.40739L14.3485 6.19137L15.2364 4.8499C15.5141 4.44386 15.8894 4.11112 16.3291 3.88104C16.7689 3.65096 17.2597 3.5306 17.758 3.5306C18.2564 3.5306 18.7472 3.65096 19.187 3.88104C19.6267 4.11112 20.002 4.44386 20.2797 4.8499L21.1676 6.19137L22.606 5.40739C23.0612 5.17566 23.5671 5.05608 24.0799 5.05896C24.848 5.04948 25.5892 5.33629 26.1438 5.85764C26.6985 6.37899 27.0223 7.09318 27.0455 7.84644L26.7614 9.32729L28.2175 9.8151C28.7547 9.98003 29.2294 10.2987 29.5806 10.7302C29.9318 11.1617 30.1436 11.6863 30.1887 12.2367H5.32741Z" fill="#BEBDBD"/>
</svg>
