<svg width="33" height="34" viewBox="0 0 33 34" fill="none" xmlns="http://www.w3.org/2000/svg">
<path d="M0.287307 4.44713C0.2879 1.94585 2.64134 -0.240926 5.68067 0.021416C15.8643 0.900425 24.9188 5.13265 31.3804 11.4334C33.4254 13.4275 32.7901 16.3874 30.4653 17.8607L29.657 18.373L28.9631 17.4694L28.948 17.4513C22.8462 10.0865 12.9243 5.29173 1.72165 5.29173H0.287097L0.287307 4.44713ZM26.6106 18.9042L27.3336 19.8457C24.5477 21.6119 21.5105 23.5383 19.7873 24.6343L19.4007 24.8862V28.3985C19.4007 29.3215 18.5447 30.07 17.4887 30.07C16.4328 30.07 15.5768 29.3215 15.5768 28.3985V28.2972C15.5175 27.8823 15.1128 27.5604 14.6283 27.5604C14.1004 27.5604 13.6723 27.9345 13.6723 28.3961V30.9081C13.6723 31.8311 12.8163 32.5796 11.7603 32.5796C10.7692 32.5796 9.95432 31.9202 9.85795 31.0759C8.96874 31.6362 8.01732 32.2364 7.10471 32.8126C4.25892 34.6089 0.280443 32.8316 0.281189 29.7618L0.286485 7.79898H1.72165C11.9569 7.79898 21.0237 12.1726 26.6106 18.9042ZM7.93646 15.0273C8.9924 15.0273 9.84839 14.279 9.84839 13.3558C9.84839 12.4327 8.9924 11.6843 7.93646 11.6843C6.88051 11.6843 6.02451 12.4327 6.02451 13.3558C6.02451 14.279 6.88051 15.0273 7.93646 15.0273ZM15.5842 20.0386C16.6402 20.0386 17.4962 19.2903 17.4962 18.3671C17.4962 17.444 16.6402 16.6956 15.5842 16.6956C14.5283 16.6956 13.6723 17.444 13.6723 18.3671C13.6723 19.2903 14.5283 20.0386 15.5842 20.0386ZM7.93646 25.0486C8.9924 25.0486 9.84839 24.3001 9.84839 23.3771C9.84839 22.454 8.9924 21.7056 7.93646 21.7056C6.88051 21.7056 6.02451 22.454 6.02451 23.3771C6.02451 24.3001 6.88051 25.0486 7.93646 25.0486Z" fill="#BEBDBD"/>
</svg>
